<svg width="344" height="39" viewBox="0 0 344 39" fill="none" xmlns="http://www.w3.org/2000/svg">
<path d="M0.9 39V3H30.9C32 3 33 3.26666 33.9 3.8C34.8333 4.33333 35.5667 5.06667 36.1 6C36.6333 6.9 36.9 7.9 36.9 9V33C36.9 34.1 36.6333 35.1167 36.1 36.05C35.5667 36.95 34.8333 37.6667 33.9 38.2C33 38.7333 32 39 30.9 39H0.9ZM6.9 34.95H30.9C31.4333 34.95 31.8833 34.7667 32.25 34.4C32.65 34 32.85 33.5333 32.85 33V9C32.85 8.46666 32.65 8.01666 32.25 7.65C31.8833 7.25 31.4333 7.05 30.9 7.05H6.9C6.36667 7.05 5.9 7.25 5.5 7.65C5.13333 8.01666 4.95 8.46666 4.95 9V33C4.95 33.5333 5.13333 34 5.5 34.4C5.9 34.7667 6.36667 34.95 6.9 34.95ZM48.2992 39C47.1992 39 46.1826 38.7333 45.2492 38.2C44.3492 37.6333 43.6159 36.9 43.0492 36C42.5159 35.0667 42.2492 34.05 42.2492 32.95V16.05C42.2492 14.95 42.5159 13.95 43.0492 13.05C43.6159 12.1167 44.3492 11.3833 45.2492 10.85C46.1826 10.2833 47.1992 10 48.2992 10H65.6992C66.8326 10 67.8492 10.2833 68.7492 10.85C69.6826 11.3833 70.4159 12.1167 70.9492 13.05C71.5159 13.95 71.7992 14.95 71.7992 16.05V26.55H46.3492V32.95C46.3492 33.4833 46.5326 33.95 46.8992 34.35C47.2992 34.7167 47.7659 34.9 48.2992 34.9H71.7992V39H48.2992ZM46.3492 22.45H67.6492V16.05C67.6492 15.5167 67.4492 15.0667 67.0492 14.7C66.6826 14.3 66.2326 14.1 65.6992 14.1H48.2992C47.7659 14.1 47.2992 14.3 46.8992 14.7C46.5326 15.0667 46.3492 15.5167 46.3492 16.05V22.45ZM90.3918 39L74.3918 10H79.1918L92.7918 35L106.392 10H111.192L95.1418 39H90.3918ZM121.644 39C120.544 39 119.527 38.7333 118.594 38.2C117.694 37.6667 116.977 36.95 116.444 36.05C115.91 35.1167 115.644 34.1 115.644 33V9C115.644 7.9 115.91 6.9 116.444 6C116.977 5.06667 117.694 4.33333 118.594 3.8C119.527 3.26666 120.544 3 121.644 3H151.544V7.05H121.644C121.11 7.05 120.644 7.25 120.244 7.65C119.877 8.01666 119.694 8.46666 119.694 9V33C119.694 33.5333 119.877 34 120.244 34.4C120.644 34.7667 121.11 34.95 121.644 34.95H151.544V39H121.644ZM162.557 39C161.457 39 160.44 38.7333 159.507 38.2C158.607 37.6333 157.874 36.9 157.307 36C156.774 35.0667 156.507 34.05 156.507 32.95V16.05C156.507 14.95 156.774 13.95 157.307 13.05C157.874 12.1167 158.607 11.3833 159.507 10.85C160.44 10.2833 161.457 10 162.557 10H179.957C181.09 10 182.107 10.2833 183.007 10.85C183.94 11.3833 184.674 12.1167 185.207 13.05C185.774 13.95 186.057 14.95 186.057 16.05V32.95C186.057 34.05 185.774 35.0667 185.207 36C184.674 36.9 183.94 37.6333 183.007 38.2C182.107 38.7333 181.09 39 179.957 39H162.557ZM162.557 34.9H179.957C180.49 34.9 180.94 34.7167 181.307 34.35C181.707 33.95 181.907 33.4833 181.907 32.95V16.05C181.907 15.5167 181.707 15.0667 181.307 14.7C180.94 14.3 180.49 14.1 179.957 14.1H162.557C162.024 14.1 161.557 14.3 161.157 14.7C160.79 15.0667 160.607 15.5167 160.607 16.05V32.95C160.607 33.4833 160.79 33.95 161.157 34.35C161.557 34.7167 162.024 34.9 162.557 34.9ZM190.544 39V10H214.044C215.144 10 216.144 10.2833 217.044 10.85C217.977 11.3833 218.71 12.1167 219.244 13.05C219.81 13.95 220.094 14.95 220.094 16.05V39H215.994V16.05C215.994 15.5167 215.794 15.0667 215.394 14.7C215.027 14.3 214.577 14.1 214.044 14.1H196.644C196.11 14.1 195.644 14.3 195.244 14.7C194.844 15.0667 194.644 15.5167 194.644 16.05V39H190.544ZM225.358 39V10H248.858C249.958 10 250.958 10.2833 251.858 10.85C252.792 11.3833 253.525 12.1167 254.058 13.05C254.625 13.95 254.908 14.95 254.908 16.05V39H250.808V16.05C250.808 15.5167 250.608 15.0667 250.208 14.7C249.842 14.3 249.392 14.1 248.858 14.1H231.458C230.925 14.1 230.458 14.3 230.058 14.7C229.658 15.0667 229.458 15.5167 229.458 16.05V39H225.358ZM266.073 39C264.973 39 263.956 38.7333 263.023 38.2C262.123 37.6333 261.389 36.9 260.823 36C260.289 35.0667 260.023 34.05 260.023 32.95V16.05C260.023 14.95 260.289 13.95 260.823 13.05C261.389 12.1167 262.123 11.3833 263.023 10.85C263.956 10.2833 264.973 10 266.073 10H283.473C284.606 10 285.623 10.2833 286.523 10.85C287.456 11.3833 288.189 12.1167 288.723 13.05C289.289 13.95 289.573 14.95 289.573 16.05V26.55H264.123V32.95C264.123 33.4833 264.306 33.95 264.673 34.35C265.073 34.7167 265.539 34.9 266.073 34.9H289.573V39H266.073ZM264.123 22.45H285.423V16.05C285.423 15.5167 285.223 15.0667 284.823 14.7C284.456 14.3 284.006 14.1 283.473 14.1H266.073C265.539 14.1 265.073 14.3 264.673 14.7C264.306 15.0667 264.123 15.5167 264.123 16.05V22.45ZM299.715 39C298.615 39 297.599 38.7333 296.665 38.2C295.765 37.6333 295.032 36.9 294.465 36C293.932 35.0667 293.665 34.05 293.665 32.95V16.05C293.665 14.95 293.932 13.95 294.465 13.05C295.032 12.1167 295.765 11.3833 296.665 10.85C297.599 10.2833 298.615 10 299.715 10H323.115V14.1H299.715C299.182 14.1 298.715 14.3 298.315 14.7C297.949 15.0667 297.765 15.5167 297.765 16.05V32.95C297.765 33.4833 297.949 33.95 298.315 34.35C298.715 34.7167 299.182 34.9 299.715 34.9H323.215V39H299.715ZM333.311 39C332.178 39 331.145 38.7333 330.211 38.2C329.311 37.6333 328.595 36.9 328.061 36C327.528 35.0667 327.261 34.05 327.261 32.95V0.499998H331.361V10H343.911V14.1H331.361V32.95C331.361 33.4833 331.545 33.95 331.911 34.35C332.311 34.7167 332.778 34.9 333.311 34.9H343.911V39H333.311Z" fill="black"/>
</svg>
