<svg width="207" height="24" viewBox="0 0 207 24" fill="none" xmlns="http://www.w3.org/2000/svg">
<path d="M0.74 24V2.4H18.74C19.4 2.4 20 2.56 20.54 2.88C21.1 3.2 21.54 3.64 21.86 4.2C22.18 4.74 22.34 5.34 22.34 6V20.4C22.34 21.06 22.18 21.67 21.86 22.23C21.54 22.77 21.1 23.2 20.54 23.52C20 23.84 19.4 24 18.74 24H0.74ZM4.34 21.57H18.74C19.06 21.57 19.33 21.46 19.55 21.24C19.79 21 19.91 20.72 19.91 20.4V6C19.91 5.68 19.79 5.41 19.55 5.19C19.33 4.95 19.06 4.83 18.74 4.83H4.34C4.02 4.83 3.74 4.95 3.5 5.19C3.28 5.41 3.17 5.68 3.17 6V20.4C3.17 20.72 3.28 21 3.5 21.24C3.74 21.46 4.02 21.57 4.34 21.57ZM29.1795 24C28.5195 24 27.9095 23.84 27.3495 23.52C26.8095 23.18 26.3695 22.74 26.0295 22.2C25.7095 21.64 25.5495 21.03 25.5495 20.37V10.23C25.5495 9.57 25.7095 8.97 26.0295 8.43C26.3695 7.87 26.8095 7.43 27.3495 7.11C27.9095 6.77 28.5195 6.6 29.1795 6.6H39.6195C40.2995 6.6 40.9095 6.77 41.4495 7.11C42.0095 7.43 42.4495 7.87 42.7695 8.43C43.1095 8.97 43.2795 9.57 43.2795 10.23V16.53H28.0095V20.37C28.0095 20.69 28.1195 20.97 28.3395 21.21C28.5795 21.43 28.8595 21.54 29.1795 21.54H43.2795V24H29.1795ZM28.0095 14.07H40.7895V10.23C40.7895 9.91 40.6695 9.64 40.4295 9.42C40.2095 9.18 39.9395 9.06 39.6195 9.06H29.1795C28.8595 9.06 28.5795 9.18 28.3395 9.42C28.1195 9.64 28.0095 9.91 28.0095 10.23V14.07ZM54.4351 24L44.8351 6.6H47.7151L55.8751 21.6L64.0351 6.6H66.9151L57.2851 24H54.4351ZM73.1863 24C72.5263 24 71.9163 23.84 71.3563 23.52C70.8163 23.2 70.3863 22.77 70.0663 22.23C69.7463 21.67 69.5863 21.06 69.5863 20.4V6C69.5863 5.34 69.7463 4.74 70.0663 4.2C70.3863 3.64 70.8163 3.2 71.3563 2.88C71.9163 2.56 72.5263 2.4 73.1863 2.4H91.1263V4.83H73.1863C72.8663 4.83 72.5863 4.95 72.3463 5.19C72.1263 5.41 72.0163 5.68 72.0163 6V20.4C72.0163 20.72 72.1263 21 72.3463 21.24C72.5863 21.46 72.8663 21.57 73.1863 21.57H91.1263V24H73.1863ZM97.7342 24C97.0742 24 96.4642 23.84 95.9042 23.52C95.3642 23.18 94.9242 22.74 94.5842 22.2C94.2642 21.64 94.1042 21.03 94.1042 20.37V10.23C94.1042 9.57 94.2642 8.97 94.5842 8.43C94.9242 7.87 95.3642 7.43 95.9042 7.11C96.4642 6.77 97.0742 6.6 97.7342 6.6H108.174C108.854 6.6 109.464 6.77 110.004 7.11C110.564 7.43 111.004 7.87 111.324 8.43C111.664 8.97 111.834 9.57 111.834 10.23V20.37C111.834 21.03 111.664 21.64 111.324 22.2C111.004 22.74 110.564 23.18 110.004 23.52C109.464 23.84 108.854 24 108.174 24H97.7342ZM97.7342 21.54H108.174C108.494 21.54 108.764 21.43 108.984 21.21C109.224 20.97 109.344 20.69 109.344 20.37V10.23C109.344 9.91 109.224 9.64 108.984 9.42C108.764 9.18 108.494 9.06 108.174 9.06H97.7342C97.4142 9.06 97.1342 9.18 96.8942 9.42C96.6742 9.64 96.5642 9.91 96.5642 10.23V20.37C96.5642 20.69 96.6742 20.97 96.8942 21.21C97.1342 21.43 97.4142 21.54 97.7342 21.54ZM114.526 24V6.6H128.626C129.286 6.6 129.886 6.77 130.426 7.11C130.986 7.43 131.426 7.87 131.746 8.43C132.086 8.97 132.256 9.57 132.256 10.23V24H129.796V10.23C129.796 9.91 129.676 9.64 129.436 9.42C129.216 9.18 128.946 9.06 128.626 9.06H118.186C117.866 9.06 117.586 9.18 117.346 9.42C117.106 9.64 116.986 9.91 116.986 10.23V24H114.526ZM135.415 24V6.6H149.515C150.175 6.6 150.775 6.77 151.315 7.11C151.875 7.43 152.315 7.87 152.635 8.43C152.975 8.97 153.145 9.57 153.145 10.23V24H150.685V10.23C150.685 9.91 150.565 9.64 150.325 9.42C150.105 9.18 149.835 9.06 149.515 9.06H139.075C138.755 9.06 138.475 9.18 138.235 9.42C137.995 9.64 137.875 9.91 137.875 10.23V24H135.415ZM159.844 24C159.184 24 158.574 23.84 158.014 23.52C157.474 23.18 157.034 22.74 156.694 22.2C156.374 21.64 156.214 21.03 156.214 20.37V10.23C156.214 9.57 156.374 8.97 156.694 8.43C157.034 7.87 157.474 7.43 158.014 7.11C158.574 6.77 159.184 6.6 159.844 6.6H170.284C170.964 6.6 171.574 6.77 172.114 7.11C172.674 7.43 173.114 7.87 173.434 8.43C173.774 8.97 173.944 9.57 173.944 10.23V16.53H158.674V20.37C158.674 20.69 158.784 20.97 159.004 21.21C159.244 21.43 159.524 21.54 159.844 21.54H173.944V24H159.844ZM158.674 14.07H171.454V10.23C171.454 9.91 171.334 9.64 171.094 9.42C170.874 9.18 170.604 9.06 170.284 9.06H159.844C159.524 9.06 159.244 9.18 159.004 9.42C158.784 9.64 158.674 9.91 158.674 10.23V14.07ZM180.029 24C179.369 24 178.759 23.84 178.199 23.52C177.659 23.18 177.219 22.74 176.879 22.2C176.559 21.64 176.399 21.03 176.399 20.37V10.23C176.399 9.57 176.559 8.97 176.879 8.43C177.219 7.87 177.659 7.43 178.199 7.11C178.759 6.77 179.369 6.6 180.029 6.6H194.069V9.06H180.029C179.709 9.06 179.429 9.18 179.189 9.42C178.969 9.64 178.859 9.91 178.859 10.23V20.37C178.859 20.69 178.969 20.97 179.189 21.21C179.429 21.43 179.709 21.54 180.029 21.54H194.129V24H180.029ZM200.187 24C199.507 24 198.887 23.84 198.327 23.52C197.787 23.18 197.357 22.74 197.037 22.2C196.717 21.64 196.557 21.03 196.557 20.37V0.899999H199.017V6.6H206.547V9.06H199.017V20.37C199.017 20.69 199.127 20.97 199.347 21.21C199.587 21.43 199.867 21.54 200.187 21.54H206.547V24H200.187Z" fill="black"/>
</svg>
