<svg width="275" height="31" viewBox="0 0 275 31" fill="none" xmlns="http://www.w3.org/2000/svg">
<path d="M0.32 31V2.2H24.32C25.2 2.2 26 2.41333 26.72 2.84C27.4667 3.26667 28.0533 3.85333 28.48 4.6C28.9067 5.32 29.12 6.12 29.12 7V26.2C29.12 27.08 28.9067 27.8933 28.48 28.64C28.0533 29.36 27.4667 29.9333 26.72 30.36C26 30.7867 25.2 31 24.32 31H0.32ZM5.12 27.76H24.32C24.7467 27.76 25.1067 27.6133 25.4 27.32C25.72 27 25.88 26.6267 25.88 26.2V7C25.88 6.57333 25.72 6.21333 25.4 5.92C25.1067 5.6 24.7467 5.44 24.32 5.44H5.12C4.69333 5.44 4.32 5.6 4 5.92C3.70667 6.21333 3.56 6.57333 3.56 7V26.2C3.56 26.6267 3.70667 27 4 27.32C4.32 27.6133 4.69333 27.76 5.12 27.76ZM38.2394 31C37.3594 31 36.546 30.7867 35.7994 30.36C35.0794 29.9067 34.4927 29.32 34.0394 28.6C33.6127 27.8533 33.3994 27.04 33.3994 26.16V12.64C33.3994 11.76 33.6127 10.96 34.0394 10.24C34.4927 9.49333 35.0794 8.90667 35.7994 8.48C36.546 8.02667 37.3594 7.8 38.2394 7.8H52.1594C53.066 7.8 53.8794 8.02667 54.5994 8.48C55.346 8.90667 55.9327 9.49333 56.3594 10.24C56.8127 10.96 57.0394 11.76 57.0394 12.64V21.04H36.6794V26.16C36.6794 26.5867 36.826 26.96 37.1194 27.28C37.4394 27.5733 37.8127 27.72 38.2394 27.72H57.0394V31H38.2394ZM36.6794 17.76H53.7194V12.64C53.7194 12.2133 53.5594 11.8533 53.2394 11.56C52.946 11.24 52.586 11.08 52.1594 11.08H38.2394C37.8127 11.08 37.4394 11.24 37.1194 11.56C36.826 11.8533 36.6794 12.2133 36.6794 12.64V17.76ZM71.9134 31L59.1134 7.8H62.9534L73.8334 27.8L84.7134 7.8H88.5534L75.7134 31H71.9134ZM96.915 31C96.035 31 95.2217 30.7867 94.475 30.36C93.755 29.9333 93.1817 29.36 92.755 28.64C92.3283 27.8933 92.115 27.08 92.115 26.2V7C92.115 6.12 92.3283 5.32 92.755 4.6C93.1817 3.85333 93.755 3.26667 94.475 2.84C95.2217 2.41333 96.035 2.2 96.915 2.2H120.835V5.44H96.915C96.4883 5.44 96.115 5.6 95.795 5.92C95.5017 6.21333 95.355 6.57333 95.355 7V26.2C95.355 26.6267 95.5017 27 95.795 27.32C96.115 27.6133 96.4883 27.76 96.915 27.76H120.835V31H96.915ZM129.646 31C128.766 31 127.952 30.7867 127.206 30.36C126.486 29.9067 125.899 29.32 125.446 28.6C125.019 27.8533 124.806 27.04 124.806 26.16V12.64C124.806 11.76 125.019 10.96 125.446 10.24C125.899 9.49333 126.486 8.90667 127.206 8.48C127.952 8.02667 128.766 7.8 129.646 7.8H143.566C144.472 7.8 145.286 8.02667 146.006 8.48C146.752 8.90667 147.339 9.49333 147.766 10.24C148.219 10.96 148.446 11.76 148.446 12.64V26.16C148.446 27.04 148.219 27.8533 147.766 28.6C147.339 29.32 146.752 29.9067 146.006 30.36C145.286 30.7867 144.472 31 143.566 31H129.646ZM129.646 27.72H143.566C143.992 27.72 144.352 27.5733 144.646 27.28C144.966 26.96 145.126 26.5867 145.126 26.16V12.64C145.126 12.2133 144.966 11.8533 144.646 11.56C144.352 11.24 143.992 11.08 143.566 11.08H129.646C129.219 11.08 128.846 11.24 128.526 11.56C128.232 11.8533 128.086 12.2133 128.086 12.64V26.16C128.086 26.5867 128.232 26.96 128.526 27.28C128.846 27.5733 129.219 27.72 129.646 27.72ZM152.035 31V7.8H170.835C171.715 7.8 172.515 8.02667 173.235 8.48C173.982 8.90667 174.568 9.49333 174.995 10.24C175.448 10.96 175.675 11.76 175.675 12.64V31H172.395V12.64C172.395 12.2133 172.235 11.8533 171.915 11.56C171.622 11.24 171.262 11.08 170.835 11.08H156.915C156.488 11.08 156.115 11.24 155.795 11.56C155.475 11.8533 155.315 12.2133 155.315 12.64V31H152.035ZM179.887 31V7.8H198.687C199.567 7.8 200.367 8.02667 201.087 8.48C201.833 8.90667 202.42 9.49333 202.847 10.24C203.3 10.96 203.527 11.76 203.527 12.64V31H200.247V12.64C200.247 12.2133 200.087 11.8533 199.767 11.56C199.473 11.24 199.113 11.08 198.687 11.08H184.767C184.34 11.08 183.967 11.24 183.647 11.56C183.327 11.8533 183.167 12.2133 183.167 12.64V31H179.887ZM212.458 31C211.578 31 210.765 30.7867 210.018 30.36C209.298 29.9067 208.711 29.32 208.258 28.6C207.831 27.8533 207.618 27.04 207.618 26.16V12.64C207.618 11.76 207.831 10.96 208.258 10.24C208.711 9.49333 209.298 8.90667 210.018 8.48C210.765 8.02667 211.578 7.8 212.458 7.8H226.378C227.285 7.8 228.098 8.02667 228.818 8.48C229.565 8.90667 230.151 9.49333 230.578 10.24C231.031 10.96 231.258 11.76 231.258 12.64V21.04H210.898V26.16C210.898 26.5867 211.045 26.96 211.338 27.28C211.658 27.5733 212.031 27.72 212.458 27.72H231.258V31H212.458ZM210.898 17.76H227.938V12.64C227.938 12.2133 227.778 11.8533 227.458 11.56C227.165 11.24 226.805 11.08 226.378 11.08H212.458C212.031 11.08 211.658 11.24 211.338 11.56C211.045 11.8533 210.898 12.2133 210.898 12.64V17.76ZM239.372 31C238.492 31 237.679 30.7867 236.932 30.36C236.212 29.9067 235.626 29.32 235.172 28.6C234.746 27.8533 234.532 27.04 234.532 26.16V12.64C234.532 11.76 234.746 10.96 235.172 10.24C235.626 9.49333 236.212 8.90667 236.932 8.48C237.679 8.02667 238.492 7.8 239.372 7.8H258.092V11.08H239.372C238.946 11.08 238.572 11.24 238.252 11.56C237.959 11.8533 237.812 12.2133 237.812 12.64V26.16C237.812 26.5867 237.959 26.96 238.252 27.28C238.572 27.5733 238.946 27.72 239.372 27.72H258.172V31H239.372ZM266.249 31C265.342 31 264.516 30.7867 263.769 30.36C263.049 29.9067 262.476 29.32 262.049 28.6C261.622 27.8533 261.409 27.04 261.409 26.16V0.199998H264.689V7.8H274.729V11.08H264.689V26.16C264.689 26.5867 264.836 26.96 265.129 27.28C265.449 27.5733 265.822 27.72 266.249 27.72H274.729V31H266.249Z" fill="black"/>
</svg>
