<svg width="221" height="36" viewBox="0 0 221 36" fill="none" xmlns="http://www.w3.org/2000/svg">
<path d="M0.9 36V-1.43051e-06H30.9C32 -1.43051e-06 33 0.266665 33.9 0.799997C34.8333 1.33333 35.5667 2.06667 36.1 3C36.6333 3.9 36.9 4.9 36.9 6V30C36.9 31.1 36.6333 32.1167 36.1 33.05C35.5667 33.95 34.8333 34.6667 33.9 35.2C33 35.7333 32 36 30.9 36H0.9ZM6.9 31.95H30.9C31.4333 31.95 31.8833 31.7667 32.25 31.4C32.65 31 32.85 30.5333 32.85 30V6C32.85 5.46666 32.65 5.01666 32.25 4.65C31.8833 4.25 31.4333 4.05 30.9 4.05H6.9C6.36667 4.05 5.9 4.25 5.5 4.65C5.13333 5.01666 4.95 5.46666 4.95 6V30C4.95 30.5333 5.13333 31 5.5 31.4C5.9 31.7667 6.36667 31.95 6.9 31.95ZM48.2992 36C47.1992 36 46.1826 35.7333 45.2492 35.2C44.3492 34.6333 43.6159 33.9 43.0492 33C42.5159 32.0667 42.2492 31.05 42.2492 29.95V13.05C42.2492 11.95 42.5159 10.95 43.0492 10.05C43.6159 9.11666 44.3492 8.38333 45.2492 7.85C46.1826 7.28333 47.1992 7 48.2992 7H65.6992C66.8326 7 67.8492 7.28333 68.7492 7.85C69.6826 8.38333 70.4159 9.11666 70.9492 10.05C71.5159 10.95 71.7992 11.95 71.7992 13.05V23.55H46.3492V29.95C46.3492 30.4833 46.5326 30.95 46.8992 31.35C47.2992 31.7167 47.7659 31.9 48.2992 31.9H71.7992V36H48.2992ZM46.3492 19.45H67.6492V13.05C67.6492 12.5167 67.4492 12.0667 67.0492 11.7C66.6826 11.3 66.2326 11.1 65.6992 11.1H48.2992C47.7659 11.1 47.2992 11.3 46.8992 11.7C46.5326 12.0667 46.3492 12.5167 46.3492 13.05V19.45ZM90.3918 36L74.3918 7H79.1918L92.7918 32L106.392 7H111.192L95.1418 36H90.3918ZM121.644 36C120.544 36 119.527 35.7333 118.594 35.2C117.694 34.6667 116.977 33.95 116.444 33.05C115.91 32.1167 115.644 31.1 115.644 30V6C115.644 4.9 115.91 3.9 116.444 3C116.977 2.06667 117.694 1.33333 118.594 0.799997C119.527 0.266665 120.544 -1.43051e-06 121.644 -1.43051e-06H151.544V4.05H121.644C121.11 4.05 120.644 4.25 120.244 4.65C119.877 5.01666 119.694 5.46666 119.694 6V30C119.694 30.5333 119.877 31 120.244 31.4C120.644 31.7667 121.11 31.95 121.644 31.95H151.544V36H121.644ZM162.557 36C161.457 36 160.44 35.7333 159.507 35.2C158.607 34.6333 157.874 33.9 157.307 33C156.774 32.0667 156.507 31.05 156.507 29.95V13.05C156.507 11.95 156.774 10.95 157.307 10.05C157.874 9.11666 158.607 8.38333 159.507 7.85C160.44 7.28333 161.457 7 162.557 7H179.957C181.09 7 182.107 7.28333 183.007 7.85C183.94 8.38333 184.674 9.11666 185.207 10.05C185.774 10.95 186.057 11.95 186.057 13.05V29.95C186.057 31.05 185.774 32.0667 185.207 33C184.674 33.9 183.94 34.6333 183.007 35.2C182.107 35.7333 181.09 36 179.957 36H162.557ZM162.557 31.9H179.957C180.49 31.9 180.94 31.7167 181.307 31.35C181.707 30.95 181.907 30.4833 181.907 29.95V13.05C181.907 12.5167 181.707 12.0667 181.307 11.7C180.94 11.3 180.49 11.1 179.957 11.1H162.557C162.024 11.1 161.557 11.3 161.157 11.7C160.79 12.0667 160.607 12.5167 160.607 13.05V29.95C160.607 30.4833 160.79 30.95 161.157 31.35C161.557 31.7167 162.024 31.9 162.557 31.9ZM190.544 36V7H214.044C215.144 7 216.144 7.28333 217.044 7.85C217.977 8.38333 218.71 9.11666 219.244 10.05C219.81 10.95 220.094 11.95 220.094 13.05V36H215.994V13.05C215.994 12.5167 215.794 12.0667 215.394 11.7C215.027 11.3 214.577 11.1 214.044 11.1H196.644C196.11 11.1 195.644 11.3 195.244 11.7C194.844 12.0667 194.644 12.5167 194.644 13.05V36H190.544Z" fill="black"/>
</svg>
