<svg width="88" height="15" viewBox="0 0 88 15" fill="none" xmlns="http://www.w3.org/2000/svg">
<path d="M0.16 15V0.599999H12.16C12.6 0.599999 13 0.706666 13.36 0.919999C13.7333 1.13333 14.0267 1.42667 14.24 1.8C14.4533 2.16 14.56 2.56 14.56 3V12.6C14.56 13.04 14.4533 13.4467 14.24 13.82C14.0267 14.18 13.7333 14.4667 13.36 14.68C13 14.8933 12.6 15 12.16 15H0.16ZM2.56 13.38H12.16C12.3733 13.38 12.5533 13.3067 12.7 13.16C12.86 13 12.94 12.8133 12.94 12.6V3C12.94 2.78667 12.86 2.60667 12.7 2.46C12.5533 2.3 12.3733 2.22 12.16 2.22H2.56C2.34667 2.22 2.16 2.3 2 2.46C1.85333 2.60667 1.78 2.78667 1.78 3V12.6C1.78 12.8133 1.85333 13 2 13.16C2.16 13.3067 2.34667 13.38 2.56 13.38ZM19.1197 15C18.6797 15 18.273 14.8933 17.8997 14.68C17.5397 14.4533 17.2464 14.16 17.0197 13.8C16.8064 13.4267 16.6997 13.02 16.6997 12.58V5.82C16.6997 5.38 16.8064 4.98 17.0197 4.62C17.2464 4.24667 17.5397 3.95333 17.8997 3.74C18.273 3.51333 18.6797 3.4 19.1197 3.4H26.0797C26.533 3.4 26.9397 3.51333 27.2997 3.74C27.673 3.95333 27.9664 4.24667 28.1797 4.62C28.4064 4.98 28.5197 5.38 28.5197 5.82V10.02H18.3397V12.58C18.3397 12.7933 18.413 12.98 18.5597 13.14C18.7197 13.2867 18.9064 13.36 19.1197 13.36H28.5197V15H19.1197ZM18.3397 8.38H26.8597V5.82C26.8597 5.60667 26.7797 5.42667 26.6197 5.28C26.473 5.12 26.293 5.04 26.0797 5.04H19.1197C18.9064 5.04 18.7197 5.12 18.5597 5.28C18.413 5.42667 18.3397 5.60667 18.3397 5.82V8.38ZM35.9567 15L29.5567 3.4H31.4767L36.9167 13.4L42.3567 3.4H44.2767L37.8567 15H35.9567ZM48.4575 15C48.0175 15 47.6108 14.8933 47.2375 14.68C46.8775 14.4667 46.5908 14.18 46.3775 13.82C46.1642 13.4467 46.0575 13.04 46.0575 12.6V3C46.0575 2.56 46.1642 2.16 46.3775 1.8C46.5908 1.42667 46.8775 1.13333 47.2375 0.919999C47.6108 0.706666 48.0175 0.599999 48.4575 0.599999H60.4175V2.22H48.4575C48.2442 2.22 48.0575 2.3 47.8975 2.46C47.7508 2.60667 47.6775 2.78667 47.6775 3V12.6C47.6775 12.8133 47.7508 13 47.8975 13.16C48.0575 13.3067 48.2442 13.38 48.4575 13.38H60.4175V15H48.4575ZM64.8228 15C64.3828 15 63.9761 14.8933 63.6028 14.68C63.2428 14.4533 62.9495 14.16 62.7228 13.8C62.5095 13.4267 62.4028 13.02 62.4028 12.58V5.82C62.4028 5.38 62.5095 4.98 62.7228 4.62C62.9495 4.24667 63.2428 3.95333 63.6028 3.74C63.9761 3.51333 64.3828 3.4 64.8228 3.4H71.7828C72.2361 3.4 72.6428 3.51333 73.0028 3.74C73.3761 3.95333 73.6695 4.24667 73.8828 4.62C74.1095 4.98 74.2228 5.38 74.2228 5.82V12.58C74.2228 13.02 74.1095 13.4267 73.8828 13.8C73.6695 14.16 73.3761 14.4533 73.0028 14.68C72.6428 14.8933 72.2361 15 71.7828 15H64.8228ZM64.8228 13.36H71.7828C71.9961 13.36 72.1761 13.2867 72.3228 13.14C72.4828 12.98 72.5628 12.7933 72.5628 12.58V5.82C72.5628 5.60667 72.4828 5.42667 72.3228 5.28C72.1761 5.12 71.9961 5.04 71.7828 5.04H64.8228C64.6095 5.04 64.4228 5.12 64.2628 5.28C64.1161 5.42667 64.0428 5.60667 64.0428 5.82V12.58C64.0428 12.7933 64.1161 12.98 64.2628 13.14C64.4228 13.2867 64.6095 13.36 64.8228 13.36ZM76.0175 15V3.4H85.4175C85.8575 3.4 86.2575 3.51333 86.6175 3.74C86.9908 3.95333 87.2842 4.24667 87.4975 4.62C87.7242 4.98 87.8375 5.38 87.8375 5.82V15H86.1975V5.82C86.1975 5.60667 86.1175 5.42667 85.9575 5.28C85.8108 5.12 85.6308 5.04 85.4175 5.04H78.4575C78.2442 5.04 78.0575 5.12 77.8975 5.28C77.7375 5.42667 77.6575 5.60667 77.6575 5.82V15H76.0175Z" fill="black"/>
</svg>
