<svg width="138" height="16" viewBox="0 0 138 16" fill="none" xmlns="http://www.w3.org/2000/svg">
<path d="M0.16 16V1.6H12.16C12.6 1.6 13 1.70667 13.36 1.92C13.7333 2.13333 14.0267 2.42667 14.24 2.8C14.4533 3.16 14.56 3.56 14.56 4V13.6C14.56 14.04 14.4533 14.4467 14.24 14.82C14.0267 15.18 13.7333 15.4667 13.36 15.68C13 15.8933 12.6 16 12.16 16H0.16ZM2.56 14.38H12.16C12.3733 14.38 12.5533 14.3067 12.7 14.16C12.86 14 12.94 13.8133 12.94 13.6V4C12.94 3.78667 12.86 3.60667 12.7 3.46C12.5533 3.3 12.3733 3.22 12.16 3.22H2.56C2.34667 3.22 2.16 3.3 2 3.46C1.85333 3.60667 1.78 3.78667 1.78 4V13.6C1.78 13.8133 1.85333 14 2 14.16C2.16 14.3067 2.34667 14.38 2.56 14.38ZM19.1197 16C18.6797 16 18.273 15.8933 17.8997 15.68C17.5397 15.4533 17.2464 15.16 17.0197 14.8C16.8064 14.4267 16.6997 14.02 16.6997 13.58V6.82C16.6997 6.38 16.8064 5.98 17.0197 5.62C17.2464 5.24667 17.5397 4.95333 17.8997 4.74C18.273 4.51333 18.6797 4.4 19.1197 4.4H26.0797C26.533 4.4 26.9397 4.51333 27.2997 4.74C27.673 4.95333 27.9664 5.24667 28.1797 5.62C28.4064 5.98 28.5197 6.38 28.5197 6.82V11.02H18.3397V13.58C18.3397 13.7933 18.413 13.98 18.5597 14.14C18.7197 14.2867 18.9064 14.36 19.1197 14.36H28.5197V16H19.1197ZM18.3397 9.38H26.8597V6.82C26.8597 6.60667 26.7797 6.42667 26.6197 6.28C26.473 6.12 26.293 6.04 26.0797 6.04H19.1197C18.9064 6.04 18.7197 6.12 18.5597 6.28C18.413 6.42667 18.3397 6.60667 18.3397 6.82V9.38ZM35.9567 16L29.5567 4.4H31.4767L36.9167 14.4L42.3567 4.4H44.2767L37.8567 16H35.9567ZM48.4575 16C48.0175 16 47.6108 15.8933 47.2375 15.68C46.8775 15.4667 46.5908 15.18 46.3775 14.82C46.1642 14.4467 46.0575 14.04 46.0575 13.6V4C46.0575 3.56 46.1642 3.16 46.3775 2.8C46.5908 2.42667 46.8775 2.13333 47.2375 1.92C47.6108 1.70667 48.0175 1.6 48.4575 1.6H60.4175V3.22H48.4575C48.2442 3.22 48.0575 3.3 47.8975 3.46C47.7508 3.60667 47.6775 3.78667 47.6775 4V13.6C47.6775 13.8133 47.7508 14 47.8975 14.16C48.0575 14.3067 48.2442 14.38 48.4575 14.38H60.4175V16H48.4575ZM64.8228 16C64.3828 16 63.9761 15.8933 63.6028 15.68C63.2428 15.4533 62.9495 15.16 62.7228 14.8C62.5095 14.4267 62.4028 14.02 62.4028 13.58V6.82C62.4028 6.38 62.5095 5.98 62.7228 5.62C62.9495 5.24667 63.2428 4.95333 63.6028 4.74C63.9761 4.51333 64.3828 4.4 64.8228 4.4H71.7828C72.2361 4.4 72.6428 4.51333 73.0028 4.74C73.3761 4.95333 73.6695 5.24667 73.8828 5.62C74.1095 5.98 74.2228 6.38 74.2228 6.82V13.58C74.2228 14.02 74.1095 14.4267 73.8828 14.8C73.6695 15.16 73.3761 15.4533 73.0028 15.68C72.6428 15.8933 72.2361 16 71.7828 16H64.8228ZM64.8228 14.36H71.7828C71.9961 14.36 72.1761 14.2867 72.3228 14.14C72.4828 13.98 72.5628 13.7933 72.5628 13.58V6.82C72.5628 6.60667 72.4828 6.42667 72.3228 6.28C72.1761 6.12 71.9961 6.04 71.7828 6.04H64.8228C64.6095 6.04 64.4228 6.12 64.2628 6.28C64.1161 6.42667 64.0428 6.60667 64.0428 6.82V13.58C64.0428 13.7933 64.1161 13.98 64.2628 14.14C64.4228 14.2867 64.6095 14.36 64.8228 14.36ZM76.0175 16V4.4H85.4175C85.8575 4.4 86.2575 4.51333 86.6175 4.74C86.9908 4.95333 87.2842 5.24667 87.4975 5.62C87.7242 5.98 87.8375 6.38 87.8375 6.82V16H86.1975V6.82C86.1975 6.60667 86.1175 6.42667 85.9575 6.28C85.8108 6.12 85.6308 6.04 85.4175 6.04H78.4575C78.2442 6.04 78.0575 6.12 77.8975 6.28C77.7375 6.42667 77.6575 6.60667 77.6575 6.82V16H76.0175ZM89.9433 16V4.4H99.3433C99.7833 4.4 100.183 4.51333 100.543 4.74C100.917 4.95333 101.21 5.24667 101.423 5.62C101.65 5.98 101.763 6.38 101.763 6.82V16H100.123V6.82C100.123 6.60667 100.043 6.42667 99.8833 6.28C99.7366 6.12 99.5566 6.04 99.3433 6.04H92.3833C92.1699 6.04 91.9833 6.12 91.8233 6.28C91.6633 6.42667 91.5833 6.60667 91.5833 6.82V16H89.9433ZM106.229 16C105.789 16 105.382 15.8933 105.009 15.68C104.649 15.4533 104.356 15.16 104.129 14.8C103.916 14.4267 103.809 14.02 103.809 13.58V6.82C103.809 6.38 103.916 5.98 104.129 5.62C104.356 5.24667 104.649 4.95333 105.009 4.74C105.382 4.51333 105.789 4.4 106.229 4.4H113.189C113.642 4.4 114.049 4.51333 114.409 4.74C114.782 4.95333 115.076 5.24667 115.289 5.62C115.516 5.98 115.629 6.38 115.629 6.82V11.02H105.449V13.58C105.449 13.7933 105.522 13.98 105.669 14.14C105.829 14.2867 106.016 14.36 106.229 14.36H115.629V16H106.229ZM105.449 9.38H113.969V6.82C113.969 6.60667 113.889 6.42667 113.729 6.28C113.582 6.12 113.402 6.04 113.189 6.04H106.229C106.016 6.04 105.829 6.12 105.669 6.28C105.522 6.42667 105.449 6.60667 105.449 6.82V9.38ZM119.686 16C119.246 16 118.839 15.8933 118.466 15.68C118.106 15.4533 117.813 15.16 117.586 14.8C117.373 14.4267 117.266 14.02 117.266 13.58V6.82C117.266 6.38 117.373 5.98 117.586 5.62C117.813 5.24667 118.106 4.95333 118.466 4.74C118.839 4.51333 119.246 4.4 119.686 4.4H129.046V6.04H119.686C119.473 6.04 119.286 6.12 119.126 6.28C118.979 6.42667 118.906 6.60667 118.906 6.82V13.58C118.906 13.7933 118.979 13.98 119.126 14.14C119.286 14.2867 119.473 14.36 119.686 14.36H129.086V16H119.686ZM133.125 16C132.671 16 132.258 15.8933 131.885 15.68C131.525 15.4533 131.238 15.16 131.025 14.8C130.811 14.4267 130.705 14.02 130.705 13.58V0.599999H132.345V4.4H137.365V6.04H132.345V13.58C132.345 13.7933 132.418 13.98 132.565 14.14C132.725 14.2867 132.911 14.36 133.125 14.36H137.365V16H133.125Z" fill="black"/>
</svg>
