<svg width="59" height="54" viewBox="0 0 59 54" fill="none" xmlns="http://www.w3.org/2000/svg">
<path d="M56.1575 18.6257C56.1667 22.7273 54.5778 26.6731 51.7243 29.6345C45.1816 36.3811 38.8346 43.4156 32.0507 49.9143C30.4935 51.3804 28.0249 51.327 26.5373 49.7943L6.98439 29.6372C1.07429 23.5437 1.07429 13.7077 6.98439 7.61679C8.38122 6.15871 10.0612 4.99792 11.9226 4.20477C13.7839 3.41163 15.7879 3.00267 17.8129 3.00267C19.8379 3.00267 21.8418 3.41163 23.7032 4.20477C25.5645 4.99792 27.2445 6.15871 28.6414 7.61679L29.3543 8.34716L30.0646 7.61679C31.4631 6.1607 33.1434 5.00104 35.0043 4.20763C36.8653 3.41421 38.8684 3.00342 40.8931 3C44.9672 3 48.8617 4.66332 51.7216 7.61679C54.5761 10.5778 56.166 14.5236 56.1575 18.6257Z" stroke="url(#paint0_linear_40_164)" stroke-width="5" stroke-linejoin="round"/>
<defs>
<linearGradient id="paint0_linear_40_164" x1="29.3547" y1="3" x2="29.3547" y2="50.9798" gradientUnits="userSpaceOnUse">
<stop stop-color="#CF8F4A"/>
<stop offset="1" stop-color="#6852AD"/>
</linearGradient>
</defs>
</svg>
