<svg width="49" height="48" viewBox="0 0 49 48" fill="none" xmlns="http://www.w3.org/2000/svg">
<path d="M0 10.0159C0 7.36488 1.05951 4.82242 2.94544 2.94784C4.83138 1.07327 7.38925 0.0201416 10.0564 0.0201416H38.2142C40.8813 0.0201416 43.4392 1.07327 45.3251 2.94784C47.211 4.82242 48.2706 7.36488 48.2706 10.0159V38.0041C48.2706 40.6552 47.211 43.1977 45.3251 45.0722C43.4392 46.9468 40.8813 47.9999 38.2142 47.9999H10.0564C7.38925 47.9999 4.83138 46.9468 2.94544 45.0722C1.05951 43.1977 0 40.6552 0 38.0041V10.0159ZM10.0564 4.01846C8.4561 4.01846 6.92137 4.65033 5.78981 5.77508C4.65825 6.89982 4.02255 8.4253 4.02255 10.0159V14.0142H14.0789V4.01846H10.0564ZM18.1015 4.01846V14.0142H30.1691V4.01846H18.1015ZM18.1015 18.0126V30.0075H30.1691V18.0126H18.1015ZM14.0789 30.0075V18.0126H4.02255V30.0075H14.0789ZM4.02255 34.0058V38.0041C4.02255 39.5948 4.65825 41.1203 5.78981 42.245C6.92137 43.3697 8.4561 44.0016 10.0564 44.0016H14.0789V34.0058H4.02255ZM18.1015 34.0058V44.0016H30.1691V34.0058H18.1015ZM34.1916 34.0058V44.0016H38.2142C39.8145 44.0016 41.3492 43.3697 42.4807 42.245C43.6123 41.1203 44.248 39.5948 44.248 38.0041V34.0058H34.1916ZM44.248 30.0075V18.0126H34.1916V30.0075H44.248ZM34.1916 4.01846V14.0142H44.248V10.0159C44.248 8.4253 43.6123 6.89982 42.4807 5.77508C41.3492 4.65033 39.8145 4.01846 38.2142 4.01846H34.1916Z" fill="url(#paint0_linear_40_163)"/>
<defs>
<linearGradient id="paint0_linear_40_163" x1="24.1353" y1="0.0201416" x2="24.1353" y2="47.9999" gradientUnits="userSpaceOnUse">
<stop stop-color="#CF8F4A"/>
<stop offset="1" stop-color="#6852AD"/>
</linearGradient>
</defs>
</svg>
