<svg width="37" height="38" viewBox="0 0 37 38" fill="none" xmlns="http://www.w3.org/2000/svg">
<path d="M35.9165 15.6406L21.1257 1.06676C20.4323 0.383713 19.492 0 18.5115 0C17.531 0 16.5906 0.383713 15.8972 1.06676L1.10639 15.6406C0.761633 15.9782 0.488336 16.38 0.302354 16.8225C0.116372 17.265 0.0214079 17.7394 0.0229681 18.2184V35.707C0.0229681 36.2868 0.256715 36.8428 0.672787 37.2528C1.08886 37.6628 1.65317 37.8931 2.24159 37.8931H14.0742C14.6626 37.8931 15.2269 37.6628 15.643 37.2528C16.0591 36.8428 16.2928 36.2868 16.2928 35.707V26.234H20.7301V35.707C20.7301 36.2868 20.9638 36.8428 21.3799 37.2528C21.796 37.6628 22.3603 37.8931 22.9487 37.8931H34.7813C35.3697 37.8931 35.9341 37.6628 36.3501 37.2528C36.7662 36.8428 37 36.2868 37 35.707V18.2184C37.0015 17.7394 36.9065 17.265 36.7206 16.8225C36.5346 16.38 36.2613 15.9782 35.9165 15.6406ZM32.5627 33.5209H25.1673V24.0479C25.1673 23.4681 24.9336 22.9121 24.5175 22.5021C24.1014 22.0922 23.5371 21.8618 22.9487 21.8618H14.0742C13.4858 21.8618 12.9215 22.0922 12.5054 22.5021C12.0893 22.9121 11.8556 23.4681 11.8556 24.0479V33.5209H4.46021V18.519L18.5115 4.67379L32.5627 18.519V33.5209Z" fill="url(#paint0_linear_66_4)"/>
<defs>
<linearGradient id="paint0_linear_66_4" x1="18.5115" y1="0" x2="18.5115" y2="37.8931" gradientUnits="userSpaceOnUse">
<stop stop-color="#4EA8B1"/>
<stop offset="1" stop-color="#224C50"/>
</linearGradient>
</defs>
</svg>
