<svg width="36" height="36" viewBox="0 0 36 36" fill="none" xmlns="http://www.w3.org/2000/svg">
<g clip-path="url(#clip0_67_172)">
<path fill-rule="evenodd" clip-rule="evenodd" d="M5.14287 15.4286C5.14287 12.7006 6.22654 10.0844 8.15549 8.15547C10.0844 6.22653 12.7006 5.14286 15.4286 5.14286C18.1565 5.14286 20.7727 6.22653 22.7017 8.15547C24.6306 10.0844 25.7143 12.7006 25.7143 15.4286C25.7143 18.1565 24.6306 20.7727 22.7017 22.7017C20.7727 24.6306 18.1565 25.7143 15.4286 25.7143C12.7006 25.7143 10.0844 24.6306 8.15549 22.7017C6.22654 20.7727 5.14287 18.1565 5.14287 15.4286ZM15.4286 2.91758e-07C13.0004 -0.000309574 10.6064 0.572509 8.44135 1.67187C6.27629 2.77123 4.40127 4.36609 2.9688 6.32673C1.53633 8.28738 0.586849 10.5584 0.197588 12.9552C-0.191673 15.352 -0.00972525 17.8068 0.728632 20.12C1.46699 22.4333 2.74091 24.5395 4.44678 26.2676C6.15265 27.9956 8.2423 29.2966 10.5458 30.0648C12.8493 30.8329 15.3015 31.0466 17.7032 30.6883C20.1048 30.33 22.3879 29.4099 24.3669 28.0029L31.6106 35.2466C32.0956 35.715 32.7451 35.9742 33.4193 35.9683C34.0936 35.9624 34.7385 35.692 35.2153 35.2152C35.692 34.7385 35.9625 34.0935 35.9683 33.4193C35.9742 32.7451 35.715 32.0955 35.2466 31.6106L28.0054 24.3694C29.6467 22.0612 30.621 19.3458 30.8215 16.5206C31.0219 13.6954 30.4409 10.8696 29.1419 8.35277C27.843 5.83593 25.8764 3.72519 23.4575 2.25186C21.0386 0.778526 18.2608 -0.000550417 15.4286 2.91758e-07Z" fill="url(#paint0_linear_67_172)"/>
</g>
<defs>
<linearGradient id="paint0_linear_67_172" x1="17.9832" y1="0" x2="17.9832" y2="35.9684" gradientUnits="userSpaceOnUse">
<stop stop-color="#4EA8B1"/>
<stop offset="1" stop-color="#21474B"/>
</linearGradient>
<clipPath id="clip0_67_172">
<rect width="36" height="36" fill="white"/>
</clipPath>
</defs>
</svg>
