<svg width="47" height="42" viewBox="0 0 47 42" fill="none" xmlns="http://www.w3.org/2000/svg">
<path d="M43.6208 14.8755C43.6278 17.9928 42.4097 20.9915 40.2219 23.2422C35.2059 28.3696 30.3399 33.7159 25.1389 38.6549C23.945 39.7691 22.0524 39.7286 20.912 38.5637L5.92138 23.2443C1.3903 18.6132 1.3903 11.1378 5.92138 6.50876C6.99228 5.40062 8.28029 4.51842 9.70733 3.91563C11.1344 3.31284 12.6707 3.00203 14.2232 3.00203C15.7757 3.00203 17.3121 3.31284 18.7391 3.91563C20.1661 4.51842 21.4542 5.40062 22.5251 6.50876L23.0717 7.06384L23.6162 6.50876C24.6884 5.40213 25.9766 4.52079 27.4033 3.9178C28.83 3.3148 30.3658 3.0026 31.9181 3C35.0415 3 38.0273 4.26413 40.2199 6.50876C42.4084 8.75916 43.6273 11.758 43.6208 14.8755Z" stroke="url(#paint0_linear_66_3)" stroke-width="5" stroke-linejoin="round"/>
<defs>
<linearGradient id="paint0_linear_66_3" x1="23.0719" y1="3" x2="23.0719" y2="39.4646" gradientUnits="userSpaceOnUse">
<stop stop-color="#4EA8B1"/>
<stop offset="1" stop-color="#224C50"/>
</linearGradient>
</defs>
</svg>
