<svg width="44" height="44" viewBox="0 0 44 44" fill="none" xmlns="http://www.w3.org/2000/svg">
<path d="M41.4224 22.054C41.4256 24.5304 40.9328 26.9832 39.9722 29.2716C39.0116 31.5601 37.6021 33.6392 35.8244 35.3899C34.0459 37.1428 31.9343 38.533 29.6102 39.4812C27.286 40.4294 24.7951 40.917 22.2796 40.916C19.5723 40.9219 16.8948 40.3588 14.4259 39.2643L6.42313 40.4307C6.02579 40.4946 5.61862 40.462 5.23697 40.3357C4.85533 40.2093 4.51077 39.9931 4.23321 39.7057C3.95565 39.4184 3.75348 39.0686 3.64427 38.6868C3.53506 38.3049 3.52212 37.9026 3.60655 37.5147L4.71787 29.5152C3.66076 27.1664 3.12184 24.6233 3.13678 22.054C3.13356 19.5775 3.62639 17.1247 4.587 14.8363C5.54761 12.5478 6.95713 10.4687 8.73476 8.71797C10.5133 6.96516 12.6249 5.57492 14.949 4.62672C17.2731 3.67852 19.7641 3.19095 22.2796 3.1919C27.3594 3.19223 32.2313 5.17986 35.8244 8.71797C37.6012 10.4693 39.0101 12.5486 39.9706 14.8369C40.9312 17.1252 41.4245 19.5776 41.4224 22.054Z" stroke="url(#paint0_linear_66_5)" stroke-width="5" stroke-linecap="round" stroke-linejoin="round"/>
<defs>
<linearGradient id="paint0_linear_66_5" x1="22.2795" y1="3.19189" x2="22.2795" y2="40.9161" gradientUnits="userSpaceOnUse">
<stop stop-color="#4EA8B1"/>
<stop offset="1" stop-color="#224C50"/>
</linearGradient>
</defs>
</svg>
