<svg width="56" height="56" viewBox="0 0 56 56" fill="none" xmlns="http://www.w3.org/2000/svg">
<path d="M53.377 28.0711C53.3812 31.3296 52.7384 34.5569 51.4854 37.568C50.2325 40.5791 48.394 43.3149 46.0753 45.6184C43.7555 47.9247 41.0012 49.754 37.9697 51.0016C34.9383 52.2493 31.6892 52.8908 28.4081 52.8896C24.8769 52.8973 21.3845 52.1564 18.1641 50.7163L7.72579 52.251C7.20752 52.3351 6.67642 52.2922 6.17863 52.1259C5.68083 51.9597 5.2314 51.6752 4.86936 51.2971C4.50733 50.919 4.24363 50.4587 4.10119 49.9563C3.95874 49.4539 3.94185 48.9246 4.05199 48.4142L5.50153 37.8885C4.12269 34.798 3.41976 31.4517 3.43924 28.0711C3.43505 24.8126 4.07786 21.5852 5.33083 18.5741C6.5838 15.563 8.4223 12.8273 10.741 10.5237C13.0607 8.21739 15.8151 6.38812 18.8465 5.14049C21.878 3.89285 25.1271 3.25132 28.4081 3.25257C35.034 3.253 41.3886 5.86831 46.0753 10.5237C48.3928 12.8281 50.2305 15.5641 51.4834 18.575C52.7363 21.5859 53.3798 24.8128 53.377 28.0711Z" stroke="url(#paint0_linear_40_5)" stroke-width="5" stroke-linecap="round" stroke-linejoin="round"/>
<defs>
<linearGradient id="paint0_linear_40_5" x1="28.408" y1="3.25256" x2="28.408" y2="52.8896" gradientUnits="userSpaceOnUse">
<stop stop-color="#4EA8B1"/>
<stop offset="1" stop-color="#224C50"/>
</linearGradient>
</defs>
</svg>
