<svg width="49" height="50" viewBox="0 0 49 50" fill="none" xmlns="http://www.w3.org/2000/svg">
<path d="M47.5867 20.5798L28.2944 1.40363C27.3899 0.504886 26.1634 0 24.8845 0C23.6056 0 22.379 0.504886 21.4746 1.40363L2.18223 20.5798C1.73254 21.024 1.37607 21.5526 1.13348 22.1348C0.890899 22.717 0.767033 23.3414 0.769068 23.9715V46.9829C0.769068 47.7458 1.07395 48.4774 1.61666 49.0168C2.15936 49.5563 2.89542 49.8593 3.66292 49.8593H19.0968C19.8643 49.8593 20.6003 49.5563 21.143 49.0168C21.6858 48.4774 21.9906 47.7458 21.9906 46.9829V34.5184H27.7783V46.9829C27.7783 47.7458 28.0832 48.4774 28.6259 49.0168C29.1686 49.5563 29.9047 49.8593 30.6722 49.8593H46.1061C46.8736 49.8593 47.6096 49.5563 48.1523 49.0168C48.695 48.4774 48.9999 47.7458 48.9999 46.9829V23.9715C49.0019 23.3414 48.8781 22.717 48.6355 22.1348C48.3929 21.5526 48.0364 21.024 47.5867 20.5798ZM43.2122 44.1065H33.566V31.642C33.566 30.8791 33.2612 30.1475 32.7185 29.6081C32.1757 29.0686 31.4397 28.7656 30.6722 28.7656H19.0968C18.3293 28.7656 17.5932 29.0686 17.0505 29.6081C16.5078 30.1475 16.2029 30.8791 16.2029 31.642V44.1065H6.55677V24.367L24.8845 6.14972L43.2122 24.367V44.1065Z" fill="url(#paint0_linear_40_4)"/>
<defs>
<linearGradient id="paint0_linear_40_4" x1="24.8845" y1="0" x2="24.8845" y2="49.8593" gradientUnits="userSpaceOnUse">
<stop stop-color="#4EA8B1"/>
<stop offset="1" stop-color="#224C50"/>
</linearGradient>
</defs>
</svg>
